<svg width="1288" height="1631" viewBox="0 0 1288 1631" fill="none" xmlns="http://www.w3.org/2000/svg">
<g clip-path="url(#clip0_348_10)" filter="url(#filter0_d_348_10)">
<path d="M-186.62 303.897C-195.632 318.364 -184.22 337.753 -169.471 346.315C-154.722 354.876 -137.044 357.281 -122.343 365.909C-95.229 381.837 -83.8858 415.182 -79.6262 446.343C-75.3666 477.505 -75.8277 510.027 -63.2337 538.867C-45.286 579.997 0.226664 607.348 44.9749 603.889C96.7053 599.909 143.183 559.537 194.613 566.489C215.948 569.385 235.415 580.309 256.519 584.628C293.683 592.236 333.131 578.087 361.764 553.213C390.398 528.338 409.246 493.844 421.662 458.002C433.475 423.907 440.01 387.056 433.126 351.62C426.221 316.198 404.252 282.496 371.256 267.892C352.685 259.682 331.534 257.855 311.626 261.748C263.272 271.209 224.517 312.338 175.441 316.819C135.944 320.437 98.598 299.46 65.9322 276.929C33.2812 254.42 0.650812 228.932 -38.3054 221.511C-53.0792 218.706 -68.5949 218.662 -82.9404 223.156C-94.2516 226.718 -104.504 232.91 -114.641 239.085C-143.982 256.982 -170.33 277.791 -186.62 303.897Z" fill="#C4DBF0"/>
<path d="M38.4493 665.491C33.6384 669.911 28.5448 674.782 27.2973 681.177C26.4376 685.565 27.5084 690.143 29.1134 694.313C34.4424 708.23 45.4921 719.517 58.5057 726.775C71.5193 734.033 86.3871 737.465 101.262 738.528C110.098 739.165 120.624 738.078 125.026 730.382C129.571 722.396 124.604 712.45 119.154 705.051C104.344 684.864 84.2443 667.383 59.9559 661.359C51.4136 659.255 43.7859 660.607 38.4493 665.491Z" fill="#C4DBF0"/>
<path d="M116.312 138.387C111.616 143.735 106.7 149.711 106.515 156.81C106.462 159.339 107.024 161.846 107.671 164.293C109.171 170.019 111.184 175.669 114.321 180.719C120.47 190.686 130.39 197.625 140.183 204.024C151.685 211.555 164.088 219.021 177.835 219.645C184.523 219.962 191.911 218.179 195.838 212.771C200.971 205.665 198.121 195.683 194.13 187.89C183.536 167.106 165.873 149.996 144.775 140.028C135.076 135.424 121.794 132.139 116.312 138.387Z" fill="#C4DBF0"/>
<path d="M-115.598 496.657C-98.9035 514.228 -70.711 515.933 -47.7896 508.159C-24.8681 500.384 -5.49181 484.913 14.5598 471.302C23.9341 464.938 33.8162 458.848 44.8521 456.331C70.2778 450.55 96.633 465.309 113.063 485.556C129.493 505.804 138.345 530.933 148.785 554.821C159.225 578.708 172.37 602.809 194.084 617.201C210.668 628.195 231.142 632.515 251.03 631.601C283.919 630.07 315.225 614.703 339.646 592.63C364.066 570.557 382.075 542.139 395.859 512.243C414.186 472.469 425.158 424.964 405.978 385.582C398.072 369.343 385.651 355.835 373.1 342.86C366.372 335.886 359.386 328.903 350.753 324.56C334.337 316.318 314.384 318.981 297.346 325.839C280.309 332.697 265.111 343.341 248.634 351.446C220.993 365.027 190.335 371.172 159.803 375.115C148.734 376.552 137.529 377.705 126.457 376.4C93.8383 372.569 67.8889 348.6 39.7627 331.68C-1.36952 306.929 -53.4972 296.65 -98.1272 314.375C-142.757 332.1 -175.208 382.204 -163.48 428.713" stroke="#72A0C7" stroke-width="4" stroke-miterlimit="10" stroke-linecap="round" stroke-linejoin="round"/>
<path d="M108.607 137.207C110.213 141.693 114.421 148.671 118.745 153.391C131.719 167.552 149.287 177.477 168.124 181.307C178.571 183.429 191.455 182.736 197.229 173.761C203.286 164.335 197.858 151.938 191.752 142.572C180.572 125.353 161.885 106.786 148.24 100.066C142.747 97.3642 134.435 94.6885 123.888 97.9021C105.559 103.46 100.471 114.445 108.607 137.207Z" stroke="#72A0C7" stroke-width="4" stroke-miterlimit="10" stroke-linecap="round" stroke-linejoin="round"/>
<path d="M28.8256 658.974C29.0195 662.527 32.1235 667.979 35.0514 671.788C48.0511 688.769 67.4083 700.748 88.3975 704.769C94.9576 706.026 102.106 706.461 108.008 703.325C116.157 698.988 119.764 688.634 118.303 679.505C116.842 670.376 111.265 662.436 104.874 655.762C92.1805 642.539 72.6641 630.199 57.7913 628.915C37.7529 627.19 28.3302 650.681 28.8256 658.974Z" stroke="#72A0C7" stroke-width="4" stroke-miterlimit="10" stroke-linecap="round" stroke-linejoin="round"/>
<path d="M1028.57 1134.39C1023.25 1111.43 1006.03 1067.35 1000.2 1044.53C997.118 1032.54 994.58 1011.48 997.209 995.076C999.384 981.389 1005 968.398 1011.95 956.403C1035.52 915.736 1075.67 885.009 1121.11 872.924C1166.52 860.839 1216.65 867.576 1257.31 891.173C1267.8 897.276 1277.74 904.497 1285.65 913.681C1316.29 949.212 1309.49 1002.69 1323.78 1047.38C1334.66 1081.4 1358.83 1110.97 1390.01 1128.38C1403.24 1135.78 1417.63 1141.01 1430.74 1148.62C1459.83 1165.51 1481.92 1194.45 1489.29 1227.26C1496.66 1260.08 1488.84 1296.24 1467.6 1322.29C1459.47 1332.26 1449.59 1340.69 1439.35 1348.48C1421.28 1362.23 1401.46 1374.4 1379.44 1379.99C1319.77 1395.1 1257.1 1359.75 1196.4 1369.93C1167.46 1374.8 1141.36 1389.63 1113.95 1400.18C1093.86 1407.91 1072.89 1413.35 1051.56 1416.37C1011.92 1421.99 968.718 1418.3 936.511 1394.46C904.303 1370.63 888.26 1322.56 909.439 1288.57C920.044 1271.53 937.749 1260.44 954.85 1249.95C977.208 1236.24 1010.74 1224.94 1021.92 1208.77C1032.56 1193.4 1032.77 1152.58 1028.57 1134.39Z" fill="#FFF0CA"/>
<path d="M1226.07 1440.03C1217.16 1439.39 1208.19 1442.05 1201.3 1447.7C1198.52 1449.97 1195.98 1452.63 1194.41 1455.86C1192.3 1460.24 1192.18 1465.28 1192.08 1470.15C1192.02 1473.93 1191.96 1477.82 1193.23 1481.39C1196.41 1490.24 1206.95 1494.44 1216.32 1493.99C1225.74 1493.53 1235.11 1489.24 1241 1481.87C1246.89 1474.5 1249.01 1464.05 1245.68 1455.19C1242.42 1446.34 1233.48 1440.54 1226.07 1440.03Z" fill="#F8EE8F"/>
<path d="M947.84 1089.34C932.552 1061.91 937.598 1027.92 945.181 997.433C957.961 946.07 980.621 891.596 1027.94 867.878C1050.53 856.548 1076.61 853.618 1101.81 855.551C1133.8 858.029 1165.98 868.664 1189.79 890.176C1221.09 918.455 1234.41 962.265 1235.71 1004.44C1236.71 1036.77 1231.72 1070.55 1244.14 1100.43C1263.84 1147.77 1318.8 1167.87 1356.78 1202.37C1371.76 1216 1385 1234.03 1384.51 1254.28C1384.12 1270.44 1374.99 1285.18 1364.18 1297.24C1351.58 1311.26 1335.93 1323.04 1317.83 1328.27C1292.6 1335.58 1265.47 1329.54 1240.79 1320.62C1216.1 1311.71 1192.23 1299.84 1166.43 1295.03C1088.3 1280.47 1008.78 1332.59 930.951 1316.61C920.225 1314.4 909.711 1310.9 900.164 1305.52C868.047 1287.45 850.312 1247.02 858.741 1211.13C867.171 1175.24 901.07 1146.96 937.87 1145.08" stroke="#BE9C6A" stroke-width="4" stroke-miterlimit="10" stroke-linecap="round" stroke-linejoin="round"/>
<path d="M1272.3 1436.1C1260.97 1435.83 1249.61 1440.3 1241.51 1448.21C1233.42 1456.13 1228.7 1467.43 1228.76 1478.76C1228.76 1480.9 1228.95 1483.11 1229.85 1485.04C1230.82 1487.19 1232.6 1488.85 1234.53 1490.18C1241.15 1494.8 1249.94 1495.71 1257.74 1493.65C1265.53 1491.6 1272.42 1486.77 1277.92 1480.87C1282.66 1475.8 1286.62 1469.61 1287.56 1462.72C1289.19 1450.66 1280.19 1436.31 1272.3 1436.1Z" stroke="#C7BD4F" stroke-width="4" stroke-miterlimit="10"/>
</g>
<defs>
<filter id="filter0_d_348_10" x="0" y="0" width="1288" height="1639" filterUnits="userSpaceOnUse" color-interpolation-filters="sRGB">
<feFlood flood-opacity="0" result="BackgroundImageFix"/>
<feColorMatrix in="SourceAlpha" type="matrix" values="0 0 0 0 0 0 0 0 0 0 0 0 0 0 0 0 0 0 127 0" result="hardAlpha"/>
<feOffset dy="4"/>
<feGaussianBlur stdDeviation="2"/>
<feComposite in2="hardAlpha" operator="out"/>
<feColorMatrix type="matrix" values="0 0 0 0 0 0 0 0 0 0 0 0 0 0 0 0 0 0 0.25 0"/>
<feBlend mode="normal" in2="BackgroundImageFix" result="effect1_dropShadow_348_10"/>
<feBlend mode="normal" in="SourceGraphic" in2="effect1_dropShadow_348_10" result="shape"/>
</filter>
<clipPath id="clip0_348_10">
<rect width="1280" height="1631" fill="white" transform="translate(4)"/>
</clipPath>
</defs>
</svg>
