<svg width="1280" height="1631" viewBox="0 0 1280 1631" fill="none" xmlns="http://www.w3.org/2000/svg">
<g clip-path="url(#clip0_348_10)">
<path d="M-213.284 308.847C-221.722 321.089 -212.561 338.446 -200.055 346.503C-187.549 354.56 -172.241 357.37 -159.779 365.482C-136.796 380.458 -128.26 409.973 -125.808 437.3C-123.355 464.627 -125.072 492.948 -115.264 518.588C-101.287 555.155 -62.7323 580.829 -23.5986 579.624C21.6404 578.247 63.773 544.945 108.309 553.083C126.783 556.469 143.305 566.775 161.521 571.391C193.598 579.523 228.545 568.789 254.502 548.271C280.459 527.753 298.278 498.456 310.546 467.725C322.219 438.492 329.403 406.644 324.837 375.486C320.252 344.341 302.47 314.085 274.308 300.025C258.457 292.119 240.1 289.673 222.594 292.26C180.076 298.549 144.642 332.823 101.695 334.744C67.1315 336.299 35.436 316.51 7.88164 295.556C-19.6606 274.622 -47.0645 251.092 -80.7112 243.051C-93.4717 240.009 -106.99 239.343 -119.673 242.68C-129.673 245.326 -138.857 250.307 -147.941 255.278C-174.232 269.688 -198.033 286.756 -213.284 308.847Z" fill="#C4DBF0"/>
<path d="M-159.187 479.69C-145.35 495.677 -120.852 498.302 -100.564 492.454C-80.2759 486.606 -62.7659 473.908 -44.7425 462.857C-36.3164 457.691 -27.4589 452.783 -17.7404 451.036C4.64934 447.027 27.0188 460.953 40.5173 479.261C54.0158 497.569 60.7138 519.825 68.8457 541.063C76.9776 562.3 87.4573 583.833 105.797 597.252C119.804 607.503 137.471 612.095 154.838 612.103C183.56 612.098 211.462 599.973 233.634 581.725C255.807 563.478 272.648 539.443 285.869 513.948C303.446 480.031 314.928 439.078 299.807 403.984C293.574 389.514 283.296 377.241 272.884 365.427C267.303 359.078 261.498 352.711 254.151 348.577C240.178 340.732 222.683 342.245 207.56 347.532C192.436 352.82 178.762 361.481 164.076 367.877C139.441 378.594 112.477 382.709 85.7118 384.912C76.0078 385.716 66.197 386.268 56.6019 384.683C28.3327 380.026 6.68917 358.091 -17.1361 342.209C-51.9783 318.978 -96.987 307.913 -136.594 321.555C-176.202 335.196 -206.506 377.546 -198.166 418.548" stroke="#72A0C7" stroke-width="4" stroke-miterlimit="10" stroke-linecap="round" stroke-linejoin="round"/>
<path d="M1078.09 1159.17C1073.14 1137.79 1057.1 1096.74 1051.67 1075.5C1048.8 1064.33 1046.44 1044.72 1048.89 1029.44C1050.91 1016.7 1056.15 1004.6 1062.62 993.428C1084.56 955.558 1121.96 926.945 1164.27 915.691C1206.56 904.437 1253.23 910.711 1291.1 932.684C1300.87 938.368 1310.12 945.092 1317.49 953.645C1346.02 986.732 1339.69 1036.53 1353 1078.14C1363.13 1109.82 1385.64 1137.37 1414.67 1153.57C1427 1160.47 1440.39 1165.33 1452.6 1172.42C1479.69 1188.15 1500.26 1215.1 1507.12 1245.66C1513.99 1276.21 1506.7 1309.89 1486.92 1334.14C1479.36 1343.43 1470.16 1351.28 1460.62 1358.54C1443.79 1371.34 1425.34 1382.68 1404.83 1387.88C1349.26 1401.95 1290.91 1369.03 1234.38 1378.51C1207.43 1383.04 1183.12 1396.86 1157.6 1406.68C1138.89 1413.88 1119.37 1418.94 1099.5 1421.76C1062.59 1426.99 1022.36 1423.56 992.365 1401.36C962.373 1379.16 947.434 1334.4 967.156 1302.75C977.032 1286.88 993.519 1276.55 1009.44 1266.79C1030.26 1254.02 1061.49 1243.49 1071.9 1228.44C1081.81 1214.12 1082 1176.11 1078.09 1159.17Z" fill="#FFF0CA"/>
<path d="M1262.01 1443.79C1253.71 1443.2 1245.36 1445.67 1238.94 1450.93C1236.35 1453.04 1233.99 1455.52 1232.53 1458.53C1230.56 1462.61 1230.44 1467.31 1230.36 1471.84C1230.3 1475.35 1230.25 1478.98 1231.43 1482.3C1234.38 1490.55 1244.2 1494.46 1252.92 1494.04C1261.7 1493.61 1270.42 1489.62 1275.91 1482.75C1281.4 1475.89 1283.37 1466.15 1280.27 1457.91C1277.23 1449.67 1268.91 1444.27 1262.01 1443.79Z" fill="#F8EE8F"/>
<path d="M1002.92 1117.22C988.679 1091.68 993.378 1060.02 1000.44 1031.64C1012.34 983.806 1033.44 933.079 1077.5 910.993C1098.55 900.442 1122.83 897.713 1146.29 899.513C1176.09 901.821 1206.05 911.724 1228.22 931.756C1257.37 958.091 1269.78 998.887 1270.99 1038.16C1271.92 1068.27 1267.27 1099.72 1278.84 1127.55C1297.18 1171.64 1348.36 1190.35 1383.72 1222.48C1397.68 1235.17 1410 1251.96 1409.55 1270.81C1409.19 1285.86 1400.69 1299.59 1390.62 1310.82C1378.88 1323.87 1364.31 1334.85 1347.46 1339.71C1323.97 1346.52 1298.7 1340.9 1275.71 1332.6C1252.73 1324.3 1230.5 1313.24 1206.47 1308.77C1133.72 1295.21 1059.66 1343.74 987.188 1328.85C977.2 1326.8 967.409 1323.54 958.518 1318.53C928.611 1301.7 912.096 1264.06 919.945 1230.64C927.795 1197.21 959.363 1170.88 993.631 1169.13" stroke="#BE9C6A" stroke-width="4" stroke-miterlimit="10" stroke-linecap="round" stroke-linejoin="round"/>
<path d="M1305.06 1440.13C1294.51 1439.88 1283.93 1444.04 1276.39 1451.41C1268.85 1458.78 1264.46 1469.31 1264.52 1479.86C1264.52 1481.85 1264.69 1483.91 1265.53 1485.71C1266.43 1487.71 1268.09 1489.25 1269.89 1490.49C1276.05 1494.8 1284.24 1495.64 1291.5 1493.73C1298.76 1491.81 1305.17 1487.31 1310.29 1481.83C1314.71 1477.1 1318.4 1471.33 1319.27 1464.92C1320.79 1453.69 1312.4 1440.33 1305.06 1440.13Z" stroke="#C7BD4F" stroke-width="4" stroke-miterlimit="10"/>
<path d="M1116.71 538.097C1119.95 533.771 1123.35 529.036 1123.39 523.647C1123.42 519.949 1121.85 516.39 1119.91 513.244C1113.46 502.742 1102.76 495.251 1091.08 491.333C1079.39 487.415 1066.78 486.889 1054.53 488.291C1047.25 489.119 1038.86 491.606 1036.45 498.533C1033.97 505.717 1039.52 513.045 1045.08 518.23C1060.2 532.385 1079.2 543.534 1099.86 544.732C1107.13 545.141 1113.12 542.88 1116.71 538.097Z" fill="#F1B5B3"/>
<path d="M1125.53 541.929C1124.83 539.069 1121.48 535.11 1118.52 532.46C1105.36 520.636 1087.8 513.846 1070.13 513.774C1064.6 513.751 1058.73 514.487 1054.41 517.935C1048.44 522.702 1047.09 531.669 1049.66 538.867C1052.24 546.065 1057.99 551.67 1064.2 556.123C1076.53 564.938 1094.28 571.997 1106.56 570.776C1123.11 569.126 1127.2 548.595 1125.53 541.929Z" stroke="#F1847F" stroke-width="4" stroke-miterlimit="10" stroke-linecap="round" stroke-linejoin="round"/>
<path d="M1121.5 233.824C1115.96 222.468 1120.22 198.961 1128.44 183.731C1136.65 168.501 1148.95 155.881 1161.55 143.995C1169.44 136.553 1177.58 129.274 1186.89 123.729C1209.93 109.987 1239.68 108.193 1264.21 119.019C1288.74 129.845 1307.46 153.047 1312.84 179.307C1318.96 209.196 1309.62 243.957 1328.17 268.178C1341.02 284.937 1363.43 290.809 1384.33 293.765C1405.23 296.721 1427.31 298.087 1445.19 309.341C1468.37 323.919 1479.67 353.849 1474.94 380.822C1470.21 407.795 1451.08 431.078 1426.98 444.066C1415.26 450.365 1402.05 454.504 1388.77 453.75C1371.3 452.73 1355.31 443.454 1338 440.803C1313.78 437.093 1289.54 446.614 1267.72 457.787C1245.9 468.959 1224.51 482.15 1200.41 486.677C1180.12 490.469 1156.47 486.473 1144.08 469.979C1135.02 457.929 1133.74 441.334 1137.67 426.797C1141.61 412.26 1150.17 399.416 1159.43 387.53C1172.52 370.73 1187.32 355.215 1199.17 337.518C1211.02 319.821 1219.88 299.209 1219.19 277.924C1218.97 270.89 1217.62 263.754 1214.05 257.699C1207.96 247.382 1196.19 241.633 1184.47 239.084C1174.62 236.923 1164.36 236.597 1154.41 238.146C1147.75 239.166 1141.04 241.042 1134.37 240.043C1127.7 239.023 1123.07 237.025 1121.5 233.824Z" fill="#F0B5B3" stroke="#F1B5B3" stroke-width="4" stroke-miterlimit="10" stroke-linecap="round" stroke-linejoin="round"/>
<path d="M1148.85 267.782C1147.69 265.704 1146.59 263.585 1145.77 261.344C1144.91 259.021 1144.38 256.577 1143.95 254.132C1142.81 247.49 1142.51 240.726 1142.65 233.982C1142.36 224.855 1143.53 215.34 1147.56 206.967C1151.93 197.9 1159.37 190.688 1167.43 184.678C1180.8 174.715 1196.61 167.503 1213.25 166.199C1229.89 164.895 1247.37 169.989 1259.28 181.642C1268.9 191.055 1274.33 203.911 1278.47 216.726C1284.77 236.162 1288.68 256.373 1290.09 276.767C1291.42 295.775 1290.76 315.701 1299.33 332.713C1312.83 359.524 1344.48 370.811 1373.19 379.694C1401.9 388.577 1433.55 399.803 1447.12 426.574C1455.99 444.095 1454.74 466.303 1443.96 482.703C1433.17 499.104 1413.26 509.087 1393.65 507.905C1374.19 506.724 1356.73 495.6 1341.89 482.968C1327.04 470.337 1313.64 455.81 1297.06 445.562C1261.42 423.498 1216.19 424.211 1174.91 431.606C1162.06 433.909 1149.13 436.802 1136.12 435.844C1119.36 434.622 1102.86 426.472 1093.03 412.842C1083.2 399.212 1080.88 380.081 1088.63 365.168C1097.93 347.239 1118.81 338.56 1138.69 334.872C1147.91 333.161 1157.56 332.102 1165.51 327.171C1169.3 325.093 1172.26 321.711 1174.4 317.942C1176.54 314.193 1177.93 310.057 1179.15 305.901" stroke="#F1847F" stroke-width="4" stroke-miterlimit="10" stroke-linecap="round" stroke-linejoin="round"/>
<path d="M-145.577 1106.95C-168.028 1073.25 -169.859 1028 -154.184 990.682C-138.49 953.361 -106.772 923.988 -70.0741 906.902C-33.3757 889.798 7.99236 884.323 48.4082 886.428C57.6194 886.905 66.8672 887.784 75.7121 890.421C107.283 899.815 128.617 930.397 137.407 962.151C146.197 993.887 144.86 1027.4 145.868 1060.31C146.527 1081.9 148.486 1104.29 159.309 1122.97C171.34 1143.74 192.565 1157.07 210.621 1172.89C228.659 1188.71 244.993 1210.87 241.331 1234.59C237.266 1260.98 208.203 1278.19 181.577 1276.28C154.951 1274.36 131.474 1257.7 113.399 1238.05C102.632 1226.35 93.1458 1213.36 81.151 1202.94C62.7286 1186.96 39.2702 1177.8 15.5005 1172.31C-12.298 1165.86 -41.1586 1163.96 -68.3527 1155.28C-98.5318 1145.64 -129.773 1130.68 -145.577 1106.95Z" fill="#D9FAB0" stroke="#D9FAB0" stroke-width="4" stroke-miterlimit="10" stroke-linecap="round" stroke-linejoin="round"/>
<path d="M214.301 1036.96C209.119 1036.06 203.607 1035.2 198.754 1037.21C196.154 1038.29 193.938 1040.16 192.052 1042.27C185.239 1049.92 182.84 1061.26 185.99 1071.02C189.14 1080.78 197.71 1088.58 207.709 1090.8C216.59 1092.77 226.845 1089.99 232.046 1082.54C233.987 1079.74 235.159 1076.48 235.874 1073.14C237.577 1065.14 236.661 1056.44 232.522 1049.39C228.402 1042.34 220.766 1038.07 214.301 1036.96Z" fill="#D9FAB0" stroke="#D9FAB0" stroke-miterlimit="10"/>
<path d="M218.422 1035.93C214.1 1044.58 215.931 1051.11 216.463 1056.17C216.774 1059.04 217.708 1063.97 219.85 1067.21C221.883 1070.3 224.978 1072.59 228.329 1074.13C237.943 1078.56 250.103 1076.73 257.977 1069.68C265.851 1062.63 269.019 1050.75 265.687 1040.71C262.354 1030.68 249.608 1022.97 242.173 1022.12C232.889 1021.06 221.48 1029.8 218.422 1035.93Z" stroke="#96BA80" stroke-width="4" stroke-miterlimit="10" stroke-linecap="round" stroke-linejoin="round"/>
<path d="M-143.966 1184.85C-162.974 1163.52 -173.852 1135.13 -173.999 1106.56C-174.145 1078 -163.524 1049.5 -144.717 1027.98C-134.334 1016.1 -121.661 1006.39 -108.549 997.604C-96.4815 989.51 -83.7176 982.02 -69.6169 978.486C-58.8125 975.775 -47.5137 975.464 -36.4163 976.435C22.8249 981.562 76.7554 1025.71 93.5114 1082.76C97.7049 1097.06 99.7376 1111.89 103.327 1126.34C109.718 1152.02 121.127 1176.43 136.729 1197.78C149.548 1215.34 165.37 1231.2 173.61 1251.32C181.851 1271.45 179.892 1298.19 161.927 1310.46C152.002 1317.23 139.348 1318.28 127.335 1318.59C118.178 1318.82 108.876 1318.75 100.067 1316.26C83.4578 1311.55 70.3826 1298.83 59.3951 1285.5C48.4075 1272.18 38.5005 1257.64 24.8576 1247.06C0.996337 1228.58 -31.8015 1224.73 -61.3946 1230.7C-68.7746 1232.19 -76.1362 1234.24 -83.6626 1234.13C-91.1891 1234.02 -99.1367 1231.29 -103.44 1225.1" stroke="#96BA80" stroke-width="4" stroke-miterlimit="10" stroke-linecap="round" stroke-linejoin="round"/>
</g>
<defs>
<clipPath id="clip0_348_10">
<rect width="1280" height="1631" fill="white"/>
</clipPath>
</defs>
</svg>
