<svg width="1280" height="2248" viewBox="0 0 1280 2248" fill="none" xmlns="http://www.w3.org/2000/svg">
<g clip-path="url(#clip0_348_10)">
<path d="M435.464 173.028C424.909 174.116 416.35 182.951 412.871 192.973C409.392 202.995 410.202 213.985 412.1 224.422C414.255 236.282 418.742 249.111 429.416 254.665C434.634 257.373 440.742 257.966 446.593 257.334C461.161 255.713 474.523 246.284 481.323 233.317C487.075 222.386 488.202 208.964 483.715 197.46C479.228 185.956 468.989 176.705 456.931 174.056C448.688 172.238 440.129 173.404 435.464 173.028Z" fill="#C4DBF0" stroke="#C4DBF0" stroke-width="4" stroke-miterlimit="10" stroke-linecap="round" stroke-linejoin="round"/>
<path d="M-86.9513 486.45C-97.5858 438.872 -92.3871 387.893 -72.3634 343.458C-56.3524 307.878 -31.3475 276.903 -2.98222 250.1C30.6805 218.315 71.0245 191.274 116.705 183.841C174.839 174.393 234.416 198.232 280.512 234.899C326.608 271.566 361.497 320.113 395.772 368.008C401.011 375.322 406.229 382.616 411.467 389.929C437.263 425.964 463.276 462.434 479.84 503.529C496.405 544.624 502.829 591.432 488.439 633.337C482.093 651.819 471.38 669.392 455.31 680.481C437.816 692.538 415.48 695.879 394.309 693.942C373.139 692.005 352.78 685.185 332.637 678.445C239.615 647.253 146.573 616.061 53.5508 584.889C24.9681 575.302 -3.87172 565.596 -29.6673 550C-55.4431 534.385 -81.041 512.938 -86.9513 486.45Z" fill="#C4DBF0" stroke="#C4DBF0" stroke-width="4" stroke-miterlimit="10" stroke-linecap="round" stroke-linejoin="round"/>
<path d="M-99.8783 495.779C-134.529 468.007 -156.53 425.034 -158.803 380.678C-161.076 336.321 -143.563 291.332 -111.936 260.16C-98.0599 246.501 -81.7522 235.491 -64.7923 225.924C-41.6455 212.858 -16.8779 202.243 9.19443 197.005C90.4159 180.678 173.911 218.571 237.579 271.585C323.09 342.785 383.952 443.042 407.652 551.759C413.523 578.661 417.18 606.533 412.792 633.712C408.404 660.891 395.12 687.537 372.586 703.37C341.532 725.232 299.805 722.978 262.485 715.862C229.198 709.497 196.603 700.009 164.264 689.869C104.173 671.012 41.513 647.588 0.734205 599.535C0.931872 599.535 1.14942 599.535 1.34709 599.535" stroke="#72A0C7" stroke-width="4" stroke-miterlimit="10" stroke-linecap="round" stroke-linejoin="round"/>
<path d="M457.148 208.115C449.182 210.585 442.817 216.93 438.943 224.303C435.068 231.676 433.447 240.038 432.677 248.34C432.044 255.238 431.985 262.295 433.724 268.996C437.381 283.208 449.538 294.851 463.888 297.915C478.239 300.979 494.092 295.286 503.224 283.801C508.502 277.179 511.506 269.036 513.661 260.852C516.23 251.127 517.516 240.097 512.139 231.578C509.431 227.308 505.319 224.145 501.129 221.319C486.739 211.633 468.158 204.715 457.148 208.115Z" stroke="#72A1C8" stroke-width="4" stroke-miterlimit="10" stroke-linecap="round" stroke-linejoin="round"/>
<path d="M861.821 1046.61C856.29 1022.73 838.377 976.874 832.311 953.147C829.106 940.67 826.466 918.766 829.2 901.701C831.463 887.465 837.308 873.952 844.536 861.475C869.049 819.175 910.815 787.214 958.081 774.644C1005.31 762.073 1057.45 769.081 1099.75 793.625C1110.66 799.973 1121 807.484 1129.23 817.038C1161.1 853.996 1154.03 909.621 1168.89 956.101C1180.2 991.487 1205.35 1022.25 1237.78 1040.36C1251.54 1048.06 1266.5 1053.49 1280.14 1061.41C1310.4 1078.98 1333.38 1109.09 1341.05 1143.21C1348.71 1177.34 1340.57 1214.96 1318.48 1242.05C1310.03 1252.42 1299.75 1261.19 1289.1 1269.3C1270.3 1283.6 1249.69 1296.26 1226.78 1302.08C1164.71 1317.79 1099.53 1281.02 1036.4 1291.61C1006.29 1296.67 979.136 1312.1 950.632 1323.07C929.734 1331.11 907.924 1336.77 885.736 1339.91C844.505 1345.76 799.565 1341.93 766.064 1317.13C732.563 1292.33 715.876 1242.33 737.906 1206.98C748.936 1189.25 767.352 1177.72 785.14 1166.82C808.396 1152.55 843.279 1140.79 854.907 1123.98C865.969 1107.99 866.189 1065.53 861.821 1046.61Z" fill="#F8EE8F" stroke="#F8EE8F" stroke-miterlimit="10"/>
<path d="M1067.26 1364.52C1057.99 1363.86 1048.65 1366.63 1041.49 1372.5C1038.6 1374.86 1035.96 1377.63 1034.32 1380.99C1032.12 1385.55 1032 1390.79 1031.9 1395.85C1031.84 1399.78 1031.78 1403.84 1033.1 1407.54C1036.4 1416.75 1047.36 1421.12 1057.11 1420.65C1066.91 1420.18 1076.65 1415.71 1082.78 1408.05C1088.91 1400.38 1091.11 1389.51 1087.65 1380.3C1084.26 1371.09 1074.96 1365.06 1067.26 1364.52Z" fill="#F8EE8F"/>
<path d="M1243.69 921.217C1238.78 921.594 1234.01 923.668 1230.36 926.968C1224.36 932.436 1221.69 941.016 1222.44 949.092C1223.2 957.169 1227.09 964.743 1232.4 970.902C1234.35 973.197 1236.55 975.302 1239.1 976.905C1247.02 981.776 1257.89 980.456 1265.31 974.831C1267.79 972.977 1269.96 970.62 1271.22 967.791C1272.54 964.743 1272.69 961.317 1272.6 957.986C1272.5 954.561 1272.13 951.072 1271.03 947.835C1270.09 945.101 1268.67 942.556 1267.16 940.104C1262.61 932.562 1256.89 925.051 1248.62 921.971C1246.64 921.185 1244.63 921.154 1243.69 921.217Z" fill="#F8EE8F" stroke="#F8EE8F" stroke-width="4" stroke-miterlimit="10"/>
<path d="M777.85 999.753C761.948 971.217 767.196 935.862 775.084 904.153C788.378 850.728 811.948 794.065 861.162 769.396C884.669 757.611 911.79 754.562 938 756.574C971.281 759.15 1004.75 770.213 1029.51 792.588C1062.07 822.004 1075.93 867.572 1077.28 911.444C1078.32 945.07 1073.13 980.205 1086.05 1011.29C1106.54 1060.53 1163.71 1081.43 1203.21 1117.32C1218.8 1131.49 1232.56 1150.25 1232.06 1171.31C1231.65 1188.12 1222.16 1203.46 1210.91 1216C1197.8 1230.58 1181.52 1242.84 1162.7 1248.27C1136.46 1255.88 1108.24 1249.59 1082.56 1240.32C1056.89 1231.05 1032.06 1218.7 1005.22 1213.7C923.952 1198.56 841.237 1252.77 760.282 1236.14C749.126 1233.85 738.19 1230.2 728.259 1224.61C694.852 1205.82 676.405 1163.77 685.173 1126.43C693.941 1089.1 729.202 1059.68 767.479 1057.73" stroke="#C7BD4F" stroke-width="4" stroke-miterlimit="10" stroke-linecap="round" stroke-linejoin="round"/>
<path d="M1115.34 1360.44C1103.56 1360.15 1091.74 1364.8 1083.32 1373.04C1074.89 1381.27 1069.99 1393.03 1070.05 1404.81C1070.05 1407.04 1070.24 1409.34 1071.19 1411.35C1072.19 1413.58 1074.05 1415.31 1076.06 1416.69C1082.94 1421.5 1092.08 1422.44 1100.19 1420.3C1108.3 1418.17 1115.47 1413.14 1121.19 1407.01C1126.12 1401.73 1130.24 1395.29 1131.21 1388.12C1132.91 1375.58 1123.54 1360.66 1115.34 1360.44Z" stroke="#C7BD4F" stroke-width="4" stroke-miterlimit="10"/>
<path d="M1253.65 884.793C1250.19 884.291 1243.56 885.548 1239.98 887.716C1234.67 890.953 1231.15 896.641 1229.76 902.707C1228.35 908.772 1228.95 915.12 1230.49 921.154C1233.13 931.525 1239.07 941.518 1248.46 946.61C1257.86 951.701 1270.93 950.601 1277.75 942.367C1279.73 939.979 1281.08 937.15 1282.12 934.259C1285.89 923.542 1284.92 911.035 1278.76 901.481C1272.6 891.927 1261.1 885.893 1253.65 884.793Z" stroke="#C7BD4F" stroke-width="4" stroke-miterlimit="10"/>
<path d="M-48.248 1682.11C-82.8078 1630.24 -85.6268 1560.59 -61.4969 1503.14C-37.3389 1445.69 11.4846 1400.48 67.9755 1374.17C124.466 1347.85 188.146 1339.42 250.359 1342.66C264.538 1343.39 278.773 1344.75 292.389 1348.8C340.987 1363.27 373.827 1410.34 387.358 1459.22C400.888 1508.07 398.831 1559.66 400.381 1610.31C401.396 1643.55 404.412 1678.02 421.072 1706.78C439.592 1738.74 472.263 1759.27 500.058 1783.62C527.824 1807.98 552.969 1842.09 547.331 1878.59C541.073 1919.21 496.337 1945.71 455.35 1942.78C414.363 1939.82 378.225 1914.16 350.402 1883.92C333.827 1865.91 319.225 1845.92 300.761 1829.88C272.403 1805.27 236.292 1791.18 199.703 1782.72C156.912 1772.8 112.486 1769.87 70.6253 1756.5C24.1697 1741.68 -23.9208 1718.65 -48.248 1682.11Z" fill="#D9FAB0" stroke="#D9FAB0" stroke-width="4" stroke-miterlimit="10" stroke-linecap="round" stroke-linejoin="round"/>
<path d="M51.4565 1982.3C43.4508 1983.71 35.1632 1985.26 28.567 1989.97C17.1504 1998.11 13.6268 2014.01 16.0792 2027.8C18.0525 2038.99 23.5493 2049.73 32.2597 2057C40.9702 2064.27 53.0632 2067.77 64.1134 2065.12C77.6159 2061.88 88.0741 2049.7 90.7521 2036.08C93.43 2022.47 88.9198 2007.98 80.2094 1997.15C72.0909 1987.09 59.6877 1980.83 51.4565 1982.3Z" fill="#D9FAB0" stroke="#D9FAB0" stroke-miterlimit="10"/>
<path d="M505.723 1574.37C497.746 1572.99 489.261 1571.67 481.791 1574.77C477.788 1576.43 474.377 1579.31 471.474 1582.55C460.988 1594.33 457.295 1611.78 462.143 1626.81C466.992 1641.83 480.184 1653.84 495.575 1657.25C509.247 1660.29 525.033 1656.01 533.039 1644.54C536.027 1640.22 537.831 1635.21 538.93 1630.08C541.552 1617.76 540.142 1604.37 533.772 1593.51C527.429 1582.66 515.674 1576.09 505.723 1574.37Z" fill="#D9FAB0" stroke="#D9FAB0" stroke-miterlimit="10"/>
<path d="M512.066 1572.8C505.414 1586.1 508.233 1596.16 509.05 1603.94C509.53 1608.37 510.967 1615.95 514.265 1620.94C517.394 1625.71 522.158 1629.23 527.317 1631.6C542.116 1638.42 560.834 1635.6 572.955 1624.75C585.076 1613.9 589.953 1595.6 584.822 1580.15C579.692 1564.71 560.073 1552.84 548.628 1551.54C534.336 1549.91 516.774 1563.35 512.066 1572.8Z" stroke="#96BA80" stroke-width="4" stroke-miterlimit="10" stroke-linecap="round" stroke-linejoin="round"/>
<path d="M53.7684 1994.45C52.2743 2011.39 61.2102 2028.02 74.0081 2039.18C96.1647 2058.52 121.676 2038.87 127.257 2033.26C130.386 2030.13 132.754 2026.3 134.502 2022.21C141.38 2006.26 138.223 1986.47 126.722 1973.47C115.192 1960.48 90.9497 1955.57 79.1103 1959.38C68.7931 1962.68 55.2342 1977.51 53.7684 1994.45Z" stroke="#96BA80" stroke-width="4" stroke-miterlimit="10" stroke-linecap="round" stroke-linejoin="round"/>
<path d="M-45.7675 1802.03C-75.0278 1769.19 -91.7722 1725.5 -91.9977 1681.52C-92.2232 1637.55 -75.8736 1593.68 -46.9234 1560.56C-30.9402 1542.27 -11.4333 1527.33 8.75004 1513.8C27.3266 1501.34 46.9745 1489.81 68.68 1484.37C85.3116 1480.19 102.704 1479.72 119.787 1481.21C210.979 1489.1 293.995 1557.07 319.788 1644.87C326.244 1666.89 329.373 1689.72 334.898 1711.96C344.736 1751.49 362.297 1789.06 386.315 1821.93C406.047 1848.96 430.402 1873.38 443.087 1904.36C455.772 1935.34 452.756 1976.49 425.103 1995.38C409.824 2005.81 390.346 2007.41 371.854 2007.89C357.759 2008.26 343.439 2008.15 329.88 2004.31C304.313 1997.07 284.186 1977.48 267.272 1956.96C250.359 1936.46 235.108 1914.08 214.108 1897.79C177.377 1869.34 126.89 1863.42 81.3369 1872.61C69.9767 1874.9 58.6448 1878.05 47.0591 1877.89C35.4734 1877.72 23.2393 1873.52 16.6149 1863.99" stroke="#96BA80" stroke-width="4" stroke-miterlimit="10" stroke-linecap="round" stroke-linejoin="round"/>
</g>
<defs>
<clipPath id="clip0_348_10">
<rect width="1280" height="2248" fill="white"/>
</clipPath>
</defs>
</svg>
